<svg width="16" height="16" xmlns="http://www.w3.org/2000/svg"><g fill="context-fill" fill-opacity="context-fill-opacity" fill-rule="nonzero"><path d="M11 6.1c-.2-.2-.6-.2-.8 0-.2.2-.2.6 0 .8l1 1.1H4.8l1-1.1c.2-.2.2-.6 0-.8-.2-.2-.6-.2-.8 0l-1.9 2c-.2.2-.2.6 0 .8L5 10.8c.2.2.6.2.8 0 .2-.2.2-.6 0-.8l-1-1h6.4l-1 1.1c-.2.2-.2.6 0 .8.2.2.6.2.8 0L12.9 9c.2-.2.2-.6 0-.8L11 6.1z"/><path d="M13 1H3C1.3 1 0 2.4 0 4v8c0 1.7 1.3 2.9 3 2.9h10c1.7 0 3-1.2 3-2.9V4c0-1.6-1.4-3-3-3zm1.1 11c0 .6-.4 1-1 1H8v-3H7v3H3c-.6 0-1-.4-1-1V4c0-.6.4-1 1-1h4v4h1V3h5.1c.6 0 1 .4 1 1v8z"/></g></svg>